,
Brought to you by http://www.scenetime.com
  Hottest scene tracker on the net !!!   
 
No fake torrents from scenebalance 
shame on those who shout fake before downloading my torrents

    seed back for speed


 



...................................NFO:.................................................http://www.oimag.com/iwave/images/43/o-thor-2011-new-poster.jpg



Genre:Action | Adventure | Drama 
Language:English
IMDb:http://www.imdb.com/title/tt0800369/
Source:CiNEDUB/IMAGINEThanks!

Format                           : AVI
Format/Info                      : Audio Video Interleave
File size                        : 774 MiB
Duration                         : 1h 44mn
Overall bit rate                 : 1 040 Kbps

Video
ID                               : 0
Format                           : MPEG-4 Visual
Format profile                   : Advanced Simple@L5
Format settings, BVOP            : Yes
Format settings, QPel            : No
Format settings, GMC             : No warppoints
Format settings, Matrix          : Default (H.263)
Muxing mode                      : Packed bitstream
Codec ID                         : XVID
Codec ID/Hint                    : XviD
Duration                         : 1h 44mn
Bit rate                         : 903 Kbps
Width                            : 688 pixels
Height                           : 288 pixels
Display aspect ratio             : 2.35:1
Frame rate                       : 25.000 fps
Color space                      : YUV
Chroma subsampling               : 4:2:0
Bit depth                        : 8 bits
Scan type                        : Progressive
Bits/(Pixel*Frame)               : 0.182
Stream size                      : 672 MiB (87%)
Writing library                  : XviD 1.2.1 (UTC 2008-12-04)

Audio
ID                               : 1
Format                           : MPEG Audio
Format version                   : Version 1
Format profile                   : Layer 3
Mode                             : Joint stereo
Mode extension                   : MS Stereo
Codec ID                         : 55
Codec ID/Hint                    : MP3
Duration                         : 1h 44mn
Bit rate mode                    : Constant
Bit rate                         : 128 Kbps
Channel(s)                       : 2 channels
Sampling rate                    : 44.1 KHz
Video delay                      : 4ms
Stream size                      : 95.2 MiB (12%)
Alignment                        : Split accross interleaves
Interleave, duration             : 40 ms (1.00 video frame)
Interleave, preload duration     : 500 ms

    
Plot:
  The powerful but arrogant warrior Thor is cast out of the fantastic realm of Asgard and sent to live amongst humans on Earth, where he soon becomes one of their finest defenders. 


Greets:

INK,CRYS,IMAGINE,LKRG,FXG,3Li,FLAWL3SS,TA,iLLUSiON,ViSiON,DTRG SAFCuk009,LU,TheFalcon007,MYSTiC,PrisM,Noir,WBZ,LAP,Rx,Kingdom,SAFCuk009+Fabreezy,HDLiTE,TWiZTED,ExtraTorrentRG.ELEKTRI4KA,MAGNAT,CM8
                And to all the other p2p grps past and present